<svg xmlns="http://www.w3.org/2000/svg" viewBox="94.5 91.9 1807.5 2441.8" role="img" aria-labelledby="ozea-t ozea-d">
  <title id="ozea-t">Ozea Dental Clinic</title>
  <desc id="ozea-d">A left-facing profile drawn in gold monoline inside a gold ring: the skull read through the cheek, the upper and lower tooth rows meeting on the bite plane, and a gold dental implant seated in a lower molar. Below it an engraved rule and the wordmark OZEA over DENTAL CLINIC.</desc>
  <path fill="#C9AC7C" fill-rule="evenodd" d="M 956 98.6 C 953 98.8, 942.9 99.4, 933.5 100 C 896.6 102.4, 839.4 110.9, 797.7 120.1 C 688 144.4, 588.7 187.9, 495 252.9 C 409.9 312, 333.6 386.2, 275.1 467 C 218.8 544.6, 176.5 626.2, 147.2 713.5 C 118.2 800.1, 105.1 874.4, 101.5 972.5 C 100.5 998.7, 103.2 1051.3, 107.5 1093.5 C 115.7 1171.8, 140.2 1263, 174 1340.5 C 180.1 1354.6, 193.4 1382.7, 197.5 1390.5 C 199.3 1393.8, 204.5 1403.5, 209 1412 C 228 1447.4, 265 1504.9, 282.9 1526.6 C 284.3 1528.3, 287.3 1532.1, 289.5 1535 C 345.3 1608.7, 428.5 1686.1, 512.5 1742.5 C 670.9 1848.8, 850.2 1901.1, 1032.7 1894.2 C 1070 1892.8, 1080.4 1892, 1112 1888 C 1194.5 1877.5, 1274.4 1855.2, 1353 1820.5 C 1368.6 1813.6, 1412.9 1792, 1415.5 1790 C 1416 1789.6, 1421.2 1786.6, 1427 1783.5 C 1561.7 1709.4, 1692.3 1581.7, 1770.5 1447.5 C 1773.7 1442, 1777.5 1435.5, 1779 1433 C 1780.5 1430.5, 1786.3 1419.8, 1791.9 1409.3 C 1852 1295.8, 1886.2 1173.6, 1894 1045 C 1896 1011.2, 1895 945.6, 1892 912 C 1884.4 829.5, 1859.7 730.6, 1828.5 658 C 1827.2 655, 1823.3 646, 1819.9 638 C 1808.6 611.4, 1784.8 565.1, 1769.5 540 C 1766.3 534.8, 1762.1 527.8, 1760.2 524.5 C 1753.2 512.7, 1728.3 476.2, 1716.5 460.5 C 1693.7 429.9, 1669 400.9, 1638.4 368.5 C 1623.4 352.7, 1620.7 350.1, 1606 336.5 C 1601.9 332.8, 1596.3 327.6, 1593.5 325 C 1590.8 322.5, 1585.1 317.5, 1581 314.1 C 1576.9 310.6, 1568.5 303.6, 1562.5 298.5 C 1536.2 276.4, 1486.4 241.2, 1453.9 221.7 C 1334.9 150.3, 1211.2 111.4, 1067 99.9 C 1054.1 98.9, 967.5 97.9, 956 98.6 M 967.5 111 C 866 114.2, 750.7 138.5, 662.5 175.5 C 656.5 178, 648.1 181.4, 644 183.1 C 616.9 194, 561.4 223.9, 526.5 246.4 C 448.8 296.5, 379.5 357.5, 320.9 427.5 C 237.3 527.5, 175.7 646.3, 142.2 772.5 C 128 826.1, 118.4 884.4, 115 939 C 113 971.8, 114 1036.9, 117 1065.5 C 120.8 1101.1, 123.2 1122.2, 124.1 1127 C 130.4 1161.4, 132.4 1171.6, 135.4 1184.5 C 183 1391.9, 303.7 1574.2, 480.5 1706.1 C 567.9 1771.3, 668.9 1821.5, 770.5 1850.4 C 849.9 1872.9, 919.9 1882.5, 1003 1882.4 C 1054 1882.3, 1087.2 1880, 1130.5 1873.3 C 1257.3 1853.9, 1379.1 1805.9, 1486 1733.2 C 1569.9 1676.1, 1646.7 1602.7, 1706.5 1522.5 C 1711.4 1515.9, 1717.1 1508.3, 1719.1 1505.5 C 1728.8 1492.4, 1754.4 1452.5, 1765 1434 C 1767.4 1429.9, 1771 1423.5, 1773.2 1419.8 C 1785.8 1397.8, 1808 1351.3, 1819.3 1323 C 1829.6 1296.9, 1831.6 1291.7, 1838.2 1271.5 C 1882.9 1135.7, 1894.7 995.9, 1873 859.3 C 1850.9 720.1, 1793.9 584.2, 1710.1 471 C 1598.9 320.7, 1449.1 211.1, 1276.5 153.8 C 1235.8 140.3, 1172.4 125.3, 1135.5 120.5 C 1128.9 119.6, 1119 118.3, 1113.5 117.5 C 1076.3 112.2, 1016.4 109.5, 967.5 111 M 1048.5 212.1 C 943.1 218.4, 864 238.6, 801.3 275.3 C 795.1 278.9, 788.6 282.9, 786.8 284.2 C 738.9 317.5, 713 351.6, 715.4 378.2 L 716 385 711.8 388.7 C 656 437.7, 622.1 501.1, 597.1 603 C 585.5 650.4, 584.9 664, 592.6 702.6 C 598.6 733.1, 597.5 748.8, 588 767.5 C 583.6 776.1, 570.7 795.4, 563 805 C 561 807.5, 555.6 814.5, 551 820.5 C 527.7 851.1, 509.1 873.3, 486.7 897 C 466 918.9, 463.7 933.1, 477.6 952 C 483.6 960.2, 491.7 965.9, 510.6 975 C 519.8 979.4, 528.6 984.4, 530.8 986.5 C 543.9 998.2, 539.6 1028.8, 523.1 1042.1 C 517.8 1046.3, 515.2 1050.4, 514 1056.8 C 511.3 1071.1, 520.3 1089.4, 534.6 1098.6 L 539.7 1101.9 534.3 1107.5 C 517.9 1124.4, 518.4 1143.6, 535.4 1156.4 C 549.2 1166.8, 555.9 1176.7, 558.1 1189.9 C 559.8 1200.1, 558.2 1208.2, 551.4 1223.8 C 541 1247.7, 538 1258.9, 538 1273.7 C 538 1308.4, 563.5 1337.7, 602.3 1347.5 C 633.1 1355.2, 660.1 1355.4, 727.5 1348.4 C 815.6 1339.2, 842.9 1341.8, 874.5 1362.5 C 884.3 1368.9, 903.3 1387.1, 911.2 1397.6 C 934.4 1428.5, 952.7 1470.7, 975.6 1546 C 979.2 1557.8, 983.2 1570.9, 984.6 1575 C 992.1 1598.2, 1002.5 1641.6, 1005.2 1661 C 1007.3 1676.4, 1006.8 1712.9, 1004.2 1727.1 C 997.4 1764.8, 983.6 1795.8, 957.2 1832.8 C 945.7 1848.9, 949.8 1847.3, 964.4 1830 C 979.6 1812, 985.8 1802.6, 995 1783.5 C 1019.2 1733.3, 1022.2 1680.5, 1004.5 1612.7 C 993.8 1571.4, 970.4 1497.5, 958.3 1466.5 C 930.2 1394.5, 891.5 1351.7, 843 1339 C 818.9 1332.7, 801.9 1332.7, 737.5 1339 C 669.1 1345.7, 651.4 1346.2, 624 1342.6 C 571.3 1335.5, 543.3 1306.7, 548.1 1264.3 C 549.5 1251.8, 551.4 1245.4, 558 1230 C 565.2 1213.4, 567 1206.8, 567 1197 C 567 1184.4, 563 1173.2, 554.9 1162.9 L 552 1159.2 557.2 1158 C 565.8 1155.9, 578.8 1149.9, 589.3 1143 C 594.7 1139.4, 598.7 1136.4, 598.1 1136.2 C 597.6 1136, 589.5 1139.1, 580.3 1143 C 553.5 1154.5, 544.1 1155.4, 535.9 1147.1 C 522.4 1133.6, 536.8 1105.1, 557.2 1105 C 559.8 1105, 569.9 1106.1, 579.6 1107.5 C 589.3 1108.9, 599.2 1110, 601.6 1110 C 606.5 1110, 615.8 1108.2, 616.4 1107.1 C 616.7 1106.7, 613.4 1103.8, 609.2 1100.7 C 601.8 1095.3, 594.8 1089.1, 569.8 1066.1 C 552.5 1050.2, 543.8 1045, 534.8 1045 L 530.8 1045 535 1040.3 C 543 1031.3, 547.6 1016.8, 546.8 1003.6 C 545.7 987.6, 538 978.5, 517.3 969.1 C 489.9 956.7, 479.5 946.5, 478.2 931.3 C 477.4 920.8, 479.2 917.7, 495.5 901 C 525.3 870.5, 557.8 830.2, 587.5 787.1 C 606.6 759.4, 609.7 738.9, 600.9 697 C 595.4 670.4, 595.9 652.6, 603.1 621 C 626.9 517.3, 657.7 455.3, 711.8 402.4 L 726.3 388.2 725.1 381.9 C 719.4 351.3, 767.2 301.9, 832 271.2 C 878.1 249.3, 927.6 235.8, 992 227.5 C 1042.1 221.1, 1110.5 220.2, 1158.5 225.5 C 1175.7 227.4, 1205.2 231.6, 1213.2 233.4 C 1243.1 239.9, 1255.9 243.3, 1277 250.1 C 1445.4 304.7, 1590.7 467.1, 1623.5 637.5 C 1643.1 739.2, 1632.4 839.3, 1591.7 934.5 C 1586.8 945.8, 1575.4 969.2, 1570.7 977.5 C 1556.2 1002.8, 1546.2 1018.6, 1531.7 1038.5 C 1515.2 1061.3, 1503.9 1074.6, 1465.4 1117.1 C 1444.9 1139.7, 1434.9 1152.6, 1424.3 1170 C 1386.7 1232.4, 1378.3 1323.5, 1401.1 1422.3 C 1415.7 1486.1, 1441.1 1543.5, 1478.3 1597.2 C 1504 1634.2, 1541.2 1672.5, 1541 1661.7 C 1541 1661, 1535.3 1653.8, 1528.4 1645.5 C 1516.2 1631, 1499.4 1609.8, 1493.7 1601.5 C 1473.7 1572.8, 1457.3 1545.5, 1447.8 1525.1 C 1427.8 1482.1, 1416.8 1449.6, 1408.6 1409.5 C 1389.7 1317.5, 1397.7 1233.3, 1430.8 1177.1 C 1442.6 1157, 1455.9 1140.1, 1479.6 1114.9 C 1527.2 1064.1, 1556.7 1024.5, 1581.7 977.7 C 1608 928.6, 1627.7 871.9, 1635.4 823.6 C 1641.5 785.6, 1642.4 775, 1642.4 736.5 C 1642.5 698.6, 1642.3 696.8, 1637.5 661.5 C 1614.2 490.7, 1485 325.2, 1319.6 254.3 C 1244.2 222, 1143.8 206.4, 1048.5 212.1 M 701.5 618.7 C 670.5 622.7, 627.8 639.7, 622.4 650.2 C 620.2 654.4, 620.2 668.5, 622.3 676.5 C 624.1 683.1, 623.9 684.3, 621.6 680.8 C 617.5 674.6, 616.2 661.4, 618.7 651.3 C 619.6 647.5, 617.2 648.7, 614.8 653.3 C 611.6 659.4, 611.6 672.4, 614.9 679.8 C 620.7 692.9, 627.4 694, 644.2 684.5 C 666.5 671.9, 670.1 670, 680.1 665.6 C 699.2 657.3, 719.9 653.3, 737.6 654.4 C 765.8 656.1, 814 671.2, 857.3 691.9 C 874 699.8, 875.2 699.5, 865.8 689.5 C 840 661.8, 788.1 630.3, 755 622.1 C 739.9 618.4, 715.7 616.8, 701.5 618.7 M 705.5 626.7 C 681.7 629.5, 648.5 640.5, 640.2 648.3 C 637 651.2, 633 658.2, 630.9 664.4 C 629.3 669, 629.1 669.2, 629.1 666.4 C 629 663.2, 630.3 655.1, 631.5 651.5 C 632.1 649.7, 631.9 649.8, 630.1 651.8 C 626.1 656.4, 624.7 670.6, 627.4 679.5 C 629 684.7, 629 684.7, 647.3 673.8 C 693.2 646.3, 726.5 640.3, 770.8 651.5 C 791.1 656.6, 820.4 667.2, 836.3 675.2 C 847.7 680.9, 845.3 678.7, 825.7 665.7 C 780.1 635.1, 740.8 622.4, 705.5 626.7 M 953.7 711.6 C 953.4 712.2, 955.1 718.4, 957.6 725.4 C 963.8 743.4, 965.3 753, 964.7 771.5 C 964.2 788.2, 961.5 799.6, 953.2 820.5 C 946.5 837.3, 944.6 845.3, 944.6 856 C 944.6 881.1, 958.3 897.6, 985.6 905.5 C 993.9 907.9, 995.9 908.1, 1022.5 908.4 C 1050.9 908.8, 1064.2 910, 1085.3 914 C 1125.9 921.7, 1149.9 920.4, 1185.6 908.5 C 1206 901.7, 1211.9 901.2, 1217.5 906.1 C 1222.5 910.5, 1224.3 915.1, 1224.4 924 C 1224.5 933.4, 1222.1 940.4, 1218 942.5 C 1213.8 944.6, 1213.8 944.6, 1206.7 937.5 C 1198.3 929.1, 1193.1 926.8, 1181.8 926.2 C 1166.3 925.4, 1152.8 931.6, 1141.4 944.6 C 1131.6 955.7, 1128.8 956.2, 1109 949.5 C 1092 943.8, 1082.3 942, 1063.5 941.3 C 1030.2 940, 1008 946.4, 982.2 964.6 C 958.7 981.2, 949.5 985.8, 931.4 989.6 C 910.9 993.9, 896.8 1000.5, 887.6 1009.9 C 881.5 1016.1, 883.7 1016.3, 894 1010.4 C 905.1 1004.1, 916.6 1000.1, 934 996.5 C 951.1 992.9, 961.7 988, 979.8 975.6 C 1008.7 955.6, 1023.5 950, 1051 948.7 C 1057.5 948.4, 1059 948.6, 1057.6 949.4 C 1056.6 950, 1054.5 951.5, 1053.1 952.7 C 1051.2 954.2, 1047.9 955.2, 1042.5 955.9 C 1008.2 960.7, 984.1 977.1, 979 999.2 C 977.5 1005.7, 977.8 1017.5, 979.6 1024.4 C 982.5 1035.5, 979.4 1045.9, 970.1 1056.3 L 965.6 1061.2 963.4 1056.8 C 954.8 1039.9, 936.7 1038.8, 926.4 1054.6 L 924.7 1057.1 922.8 1053.8 C 913.8 1038.8, 897.8 1037.2, 886.5 1050.2 C 884.4 1052.6, 882.6 1054, 882.3 1053.3 C 881 1049.9, 875.5 1043.8, 872.1 1042 C 863.5 1037.6, 852.3 1040.9, 845.1 1050 L 841.1 1055.1 839.5 1051.4 C 831.8 1032.9, 814 1032.2, 801.8 1049.8 L 798.8 1054.2 797 1050.2 C 794.8 1045.3, 788.7 1038.4, 784.7 1036.3 C 780.4 1034.1, 771.2 1034.4, 766.3 1036.8 C 761.4 1039.3, 755.7 1045.6, 752.8 1051.5 C 750.1 1057, 750.1 1057, 746.9 1051.6 C 738.6 1038, 722.8 1037.3, 713.3 1050.1 C 710 1054.4, 709.4 1054.9, 708.5 1053.4 C 700 1038.8, 684.7 1037.1, 674.4 1049.5 L 670.6 1053.9 668.3 1050 C 664.9 1044.4, 660.5 1042, 653.5 1042 C 649.3 1042, 647.9 1041.7, 648.3 1040.8 C 653.9 1027.9, 655 1024.8, 654.4 1023.9 C 652.6 1020.9, 640.7 1038.3, 639.1 1046.2 C 638.7 1048.6, 637.1 1053.4, 635.6 1056.9 C 628.8 1072.7, 627.8 1101.8, 633.7 1109.9 C 636.3 1113.4, 643.6 1117, 648.2 1117 C 652.6 1117, 660.4 1114.5, 664 1112 C 666.4 1110.3, 666.6 1110.3, 668.8 1112.1 C 676.2 1118, 694.5 1116.9, 702.3 1110.1 L 705.5 1107.2 708.7 1110 C 716.9 1117.4, 737 1116.3, 744.4 1108.1 L 746.3 1106 750 1109.9 C 755.2 1115.3, 763.7 1118.4, 770.7 1117.5 C 777.7 1116.6, 787.2 1111.8, 791.4 1106.9 L 794.8 1102.9 799.4 1106.4 C 809.8 1114.3, 826.2 1114, 835.4 1105.5 L 839.1 1102.2 841.6 1104.5 C 850.9 1113.1, 870.2 1112.7, 879.2 1103.5 L 881.9 1100.8 884.7 1102.8 C 894.1 1109.4, 914.1 1108, 922.2 1100.3 L 925 1097.6 927.2 1099.7 C 934.8 1106.5, 953.4 1105.4, 961.5 1097.6 C 966.8 1092.6, 968.3 1087.7, 967.9 1076.6 L 967.6 1068.5 973.2 1062.8 C 978.9 1057, 984.3 1048.6, 985.5 1043.8 C 986.9 1038.2, 1003.8 1066.9, 1005.9 1078.4 C 1011.2 1107.5, 992.4 1141.7, 962.3 1157.8 C 953.5 1162.4, 951.3 1163.1, 955.4 1159.9 C 959.4 1156.7, 962.9 1149.9, 964.6 1141.9 C 969.9 1116.6, 954.2 1103.4, 931.9 1114.3 L 924.2 1118 919.4 1115.8 C 908.8 1111.2, 895.2 1112.8, 890.3 1119.4 L 888.6 1121.7 883.8 1118.7 C 879.4 1116, 878.6 1115.8, 873.8 1116.5 C 870.9 1117, 866.3 1117.2, 863.5 1117.1 C 855.9 1116.8, 852.3 1117.8, 848.4 1121.2 L 844.9 1124.3 842.7 1122.2 C 838.3 1118, 833.6 1116.9, 823.7 1117.6 C 812.7 1118.3, 809 1119.3, 804.9 1122.7 L 801.9 1125.3 799.2 1122.7 C 792.8 1116.8, 785.9 1115.7, 773.4 1118.6 C 765.5 1120.4, 762.4 1121.9, 759.1 1125.4 L 756.7 1127.9 753.5 1125.1 C 745.5 1118.1, 726 1118.5, 717.7 1125.8 C 716.5 1126.9, 715.7 1127.1, 715.2 1126.3 C 711.8 1120.9, 694.1 1118.8, 687.3 1123 L 684 1125 680.4 1122.8 C 676 1120.2, 663.3 1119.6, 660.5 1122 C 659.1 1123.2, 658.4 1123.2, 655.7 1121.8 C 647.3 1117.6, 638.6 1119.3, 635.4 1125.8 C 631.5 1133.7, 633.9 1155.3, 640.2 1169 C 641.6 1172.2, 642.3 1176, 642.5 1182 C 642.7 1188.1, 643.7 1193.5, 646 1201 C 651.7 1219.9, 651.3 1227.2, 642.5 1260 C 637.7 1277.8, 637.9 1287, 643.2 1298.2 C 650.4 1313.3, 661 1320.9, 684.1 1327.2 C 698.7 1331.2, 734.2 1330.5, 780.5 1325.2 C 883.9 1313.3, 943.7 1303.6, 1023.5 1285.5 C 1087.7 1271.1, 1107.1 1259.8, 1124.8 1227 C 1134 1209.8, 1137.4 1196.7, 1144.5 1150.5 C 1156.2 1074, 1166.5 1040.8, 1189.5 1005 C 1206.2 979.1, 1209.3 966.4, 1202.6 951.5 C 1197.6 940.4, 1189.2 935.6, 1176.2 936.2 C 1157.7 937.1, 1147.1 947.8, 1146.2 966.5 C 1145.7 976.9, 1144.9 978.8, 1137 988.5 C 1115.3 1015.1, 1094.7 1024.5, 1077.9 1015.4 C 1054.2 1002.5, 1044.4 964.1, 1062.9 956.2 C 1078 949.6, 1094.3 951.1, 1117.4 961.2 C 1125 964.5, 1133.1 965.2, 1136.9 962.9 C 1138.1 962.1, 1140.7 959, 1142.5 955.9 C 1156.2 933.5, 1184.2 926.3, 1199.8 941.3 C 1209.9 951, 1211.2 966.1, 1203.9 989.8 C 1193.1 1024.8, 1193.9 1049.4, 1206.4 1063.5 L 1210.6 1068.3 1206.4 1076.4 C 1189.1 1109.7, 1178 1174.2, 1178 1242 C 1178 1337.8, 1200.2 1433.6, 1241.5 1516 C 1251.3 1535.7, 1272 1569.4, 1274.9 1570.5 C 1275.7 1570.8, 1275.4 1569.6, 1274 1567.3 C 1216.5 1470.9, 1186.4 1366.5, 1184.3 1256.5 C 1183 1184, 1191.1 1125.3, 1209.2 1077.8 L 1212.1 1070.1 1216.8 1072.9 C 1227.5 1079.2, 1232.4 1080.4, 1246.5 1080.4 C 1259 1080.5, 1259.8 1080.3, 1268.6 1076.9 C 1278 1073.3, 1289.9 1066.5, 1305.5 1055.7 C 1310.5 1052.3, 1320.3 1045.5, 1327.5 1040.6 C 1358.3 1019.4, 1371.7 1006.8, 1386.2 985 C 1407.9 952.4, 1419.7 910, 1416.1 876.9 C 1410.5 825.5, 1379.4 793.1, 1335.3 793 C 1308.8 793, 1287.6 802.4, 1266.5 823.5 C 1254.2 835.8, 1248.2 844.1, 1239.8 860.9 C 1230.4 879.5, 1234.7 877.5, 1250 856 C 1275 821, 1296.4 805.8, 1325.8 801.9 C 1389.5 793.4, 1425.9 863.9, 1398.1 941.9 C 1385 978.6, 1366.8 1002, 1332.5 1026.4 C 1276.3 1066.4, 1265.7 1072, 1246.4 1072.1 C 1211.8 1072.3, 1197.1 1046.2, 1208.1 1004.1 C 1209.2 999.9, 1211.3 992.2, 1212.6 987 C 1215.2 977.1, 1216.2 962.1, 1214.7 954.8 C 1214 951.3, 1214.1 951, 1216.2 951 C 1217.5 951, 1219.7 950.2, 1221.3 949.2 C 1235.5 939.8, 1235.6 910.4, 1221.3 899.5 C 1213.2 893.3, 1207.2 893.5, 1184.9 900.4 C 1147.3 912.1, 1132.5 913.1, 1093 906.5 C 1060.4 901.1, 1056.3 900.7, 1026.5 900.4 C 994.6 900.1, 987.5 899.1, 976.4 893.9 C 963.3 887.7, 955.5 877.5, 952.9 863 C 951.4 854.4, 953.4 842, 958.6 828.5 C 969.8 799.5, 971.9 791.5, 972.7 775.5 C 973.6 756.6, 969.5 735.5, 962 721 C 959.4 716.1, 954.5 710.4, 953.7 711.6 M 677 718.3 C 670.6 729.3, 669.6 735, 670.4 756.2 C 671.1 775.1, 671.1 775.2, 668.6 780.3 C 663.5 790.9, 649.2 795.6, 635.3 791.4 C 631.2 790.2, 632.9 792.6, 638.3 795.6 C 648.2 801.1, 661.1 799.1, 672.8 790.2 C 674.5 788.9, 676 788.2, 676 788.8 C 676 790.4, 667.5 797.7, 663 800 C 657.9 802.6, 645.5 805.3, 642.3 804.5 C 640.7 804.1, 640 804.4, 640 805.4 C 640 807.4, 647.4 808.4, 656.9 807.7 C 665.5 807, 675.2 802.8, 683.4 796 C 689.2 791.2, 690.7 790.9, 688.3 795.2 C 684.9 801.4, 675.8 809.4, 668.8 812.5 C 661.5 815.7, 660.4 817, 664.8 817 C 676.4 816.9, 691.7 807.7, 700.6 795.4 C 704.2 790.6, 704.2 793.2, 700.6 800.6 C 698.8 804.5, 694.9 810, 691.8 813.3 C 688.8 816.4, 686.6 819.2, 686.8 819.5 C 687.6 820.2, 697.4 814.9, 701.8 811.3 C 704.2 809.3, 707.8 805.3, 709.7 802.4 C 713.9 796.1, 714.1 795.9, 713.4 800.3 C 712.6 804.6, 714.6 802, 716 796.8 C 716.6 794.7, 717.5 793, 718.1 793 C 720.3 793, 715 806.1, 710.5 811.6 C 708.5 814, 707.4 816, 708 816 C 712.3 816, 721.9 806.7, 727 797.6 C 728.8 794.5, 730.6 792, 731.2 792 C 732.3 792, 731.3 802, 729.8 805.9 C 726.9 813.6, 734.2 806.5, 738.7 797.3 C 740.6 793.3, 742.6 790, 743.1 790 C 743.6 790, 744 792.7, 744 796 C 744 799.3, 744.4 802, 744.9 802 C 746.3 802, 749.9 795.7, 750.6 792.2 C 751.6 787.4, 753.6 786.3, 755.2 789.6 C 756.4 792.3, 762.6 796.8, 763.6 795.8 C 763.8 795.5, 763.4 794, 762.5 792.4 C 759.6 786.8, 760.3 785.8, 769.8 781.5 C 782.1 775.9, 799.7 764, 795.5 764 C 795.2 764, 792.7 765.1, 790 766.5 C 781 771.1, 762.8 777, 748 780.2 C 729.8 784.1, 698.5 784.9, 685 781.7 L 677.5 780 677.4 768.2 C 677.3 761.8, 677.2 751.3, 677 745 C 676.8 733.9, 678.3 725.6, 682.5 714.8 C 684.1 710.6, 679.8 713.3, 677 718.3 M 1320.4 825.5 C 1305.1 828.8, 1288 842.1, 1281.3 856 C 1272.4 874.3, 1271.9 902.1, 1280.1 918.5 C 1282.3 922.9, 1291.7 932.6, 1292.7 931.6 C 1293 931.4, 1291.3 927.4, 1289.1 922.8 C 1283 910.4, 1281 897.9, 1282.6 882.1 L 1283.3 875.9 1286.1 880.8 C 1289.6 887.1, 1298.3 894.9, 1307.3 900.1 C 1320 907.4, 1324.4 910.8, 1328.4 916 C 1339.8 931, 1339.8 952.1, 1328.4 968.7 C 1320.2 980.7, 1310.4 986.2, 1294.8 987.9 C 1280.3 989.5, 1273.6 992.2, 1261.6 1001.4 C 1249.6 1010.6, 1239 1007.2, 1239 994.2 C 1239 987, 1241.6 982.6, 1251.3 973.4 C 1262.6 962.8, 1266.1 953.7, 1264 940.7 C 1262.7 932.2, 1259.2 923, 1257.2 923 C 1256 923, 1255.9 924.8, 1256.5 935.4 C 1257.5 953.5, 1256.3 956.9, 1245.5 967.9 C 1232.3 981.2, 1228.3 991.7, 1232.4 1002.4 C 1237.3 1015.3, 1250.8 1018.2, 1263.8 1009.2 C 1277.8 999.5, 1281.8 997.9, 1298 995.5 C 1304.9 994.5, 1310.6 993, 1314.7 991.1 C 1336.1 981, 1349.9 951, 1343.4 928.9 C 1338.6 912.7, 1331.5 904.8, 1311 893 C 1300.8 887.1, 1293.4 879.9, 1289.9 872.5 C 1286.2 864.8, 1286.3 863.6, 1290.5 856.4 C 1301.2 838.3, 1325.9 828.2, 1346.5 833.5 C 1373.9 840.7, 1383.6 862.7, 1378.5 906.5 C 1373.6 948.3, 1359 978.4, 1333.5 999.1 C 1326.3 1005, 1325.9 1005.8, 1331.6 1003.4 C 1345.1 997.8, 1361.8 980.3, 1370.9 962.2 C 1382.4 939.5, 1389.8 898.7, 1387 874.1 C 1382.9 837.4, 1355.9 817.8, 1320.4 825.5 M 606.7 946.7 C 607.9 967.8, 599.3 981.9, 583.8 984.5 C 575.7 985.9, 583.1 988.8, 591.4 987.6 C 608.5 985, 619.9 958, 610.8 941.7 C 606.9 934.8, 606.1 935.8, 606.7 946.7 M 1171.8 944.4 C 1159.5 947.7, 1154.8 954, 1154 968.5 C 1153.4 978.5, 1153.4 978.6, 1148.6 986 C 1141.9 996.2, 1123.4 1014.5, 1114.5 1019.8 C 1094.9 1031.3, 1078.1 1029.2, 1062.4 1013.4 C 1049.3 1000.3, 1042.6 981.2, 1045.9 966.6 L 1046.8 962.7 1041.7 963.4 C 1034.3 964.2, 1025.9 966.6, 1017.5 970.1 C 997.9 978.2, 987.2 990.6, 986.2 1006.6 C 985.3 1021.2, 988.3 1029.7, 1001.4 1049.4 C 1010.1 1062.4, 1012.4 1067.9, 1014.5 1079.5 C 1020.2 1112.4, 993.4 1155.4, 959.5 1167.6 L 953.5 1169.8 953 1179.5 C 952.4 1190.8, 952.3 1190.9, 941.6 1194.2 C 935.8 1196, 933 1196.2, 922.3 1195.8 C 906.7 1195.2, 906.6 1195.1, 904.9 1182.3 C 904.1 1176.8, 903.2 1173, 902.5 1173 C 901.9 1173, 898.8 1171.4, 895.5 1169.5 C 892.3 1167.5, 889.6 1166.1, 889.6 1166.2 C 888.3 1169, 882 1177.1, 879.8 1178.9 C 870.2 1186.6, 858 1184.5, 850 1173.7 L 846.5 1169 845.2 1172.2 C 839.2 1186.6, 826.2 1192.8, 815.4 1186.5 C 811.4 1184.1, 805.2 1176.8, 803.6 1172.5 C 802.9 1170.8, 802.5 1171.3, 800.8 1175.5 C 791.4 1199.3, 771.4 1200.6, 760 1178.1 L 757.8 1173.7 754.9 1179.1 C 751 1186.2, 748.6 1188.6, 743.4 1190.6 C 735.4 1193.7, 727.2 1189.8, 721.9 1180.5 L 718.8 1175 714.9 1179.4 C 707.8 1187.5, 699.9 1187.9, 692.6 1180.7 L 688.5 1176.5 685.6 1179.8 C 679.3 1187, 672.1 1187.4, 666.6 1180.9 L 664 1177.8 660.8 1180.5 C 658.3 1182.6, 656.8 1183.1, 653.8 1182.8 C 648.9 1182.3, 648.9 1183, 653.6 1198.6 C 659.8 1219.3, 659.5 1227.6, 651.4 1257 C 647.4 1271.3, 646.9 1274.4, 647.2 1281 C 648.4 1304, 666.3 1317.3, 701.5 1321.2 C 713.8 1322.5, 730 1321.8, 761.5 1318.5 C 815.8 1312.9, 900.3 1301.8, 921.5 1297.5 C 925.3 1296.7, 935 1294.9, 943 1293.6 C 985.6 1286.2, 1049.6 1271.5, 1068 1264.8 C 1096.7 1254.5, 1114.2 1236.3, 1124.9 1205.6 C 1128.1 1196.4, 1133 1171.2, 1137.4 1140.5 C 1142.6 1104.8, 1151.8 1065.8, 1160.4 1042.8 C 1164.8 1031.1, 1175.2 1011.6, 1184.1 998.5 C 1187.8 992.9, 1192.3 985.3, 1194.1 981.6 C 1202.2 964.4, 1197 947.8, 1182.5 944.1 C 1177.3 942.8, 1177.8 942.8, 1171.8 944.4 M 514.1 950.3 C 510.6 952.1, 509.3 954.5, 510.9 956.4 C 512 957.7, 513.7 957.9, 521 957.3 C 536.2 956.3, 545.3 958.9, 564.1 969.5 C 569.3 972.5, 573.9 975, 574.3 975 C 576.4 975, 574.4 971.2, 569.8 966.4 C 563.7 960, 550.7 953.1, 540 950.5 C 532.1 948.7, 517.4 948.5, 514.1 950.3 M 768.5 1043.9 C 758 1050.2, 751.1 1068.1, 750.8 1090 C 750.6 1101.1, 752 1104.5, 758.1 1107.9 C 764.5 1111.5, 770.8 1111.7, 777.6 1108.6 C 789.3 1103.2, 791.4 1099.4, 792.5 1081.5 C 793.8 1061.6, 793.6 1058.5, 790.3 1052.1 C 785.5 1042.6, 776.2 1039.1, 768.5 1043.9 M 813.3 1046.9 C 804.1 1053.5, 800.1 1064.2, 799.3 1083.5 L 798.8 1097.5 801.6 1100.1 C 809.7 1107.5, 829.2 1106.4, 833.4 1098.3 C 835.7 1093.7, 837.1 1066.9, 835.4 1060.2 C 831.5 1045.3, 822.8 1040, 813.3 1046.9 M 858.5 1047.9 C 848.1 1052.6, 843.5 1062.3, 842.5 1081.1 L 841.9 1094.8 845 1098.3 C 852.4 1106.8, 869.5 1106, 876.1 1096.9 C 877.6 1094.9, 878 1091.9, 878.2 1077.5 L 878.5 1060.5 875.6 1055.3 C 873.5 1051.4, 871.6 1049.5, 868.5 1048 C 863.5 1045.6, 863.5 1045.6, 858.5 1047.9 M 725.5 1048.4 C 716.7 1052.3, 710.5 1067.4, 709.3 1088 C 708.4 1104.2, 711.4 1108, 724.9 1108 C 737.5 1108, 743 1104.1, 743 1095.1 C 743 1092, 743.7 1084, 744.7 1077.3 L 746.3 1065.1 743.1 1058.6 C 738.5 1049.2, 732.1 1045.5, 725.5 1048.4 M 648.5 1049.2 C 645.3 1051.1, 644.2 1053, 640.9 1063 C 635.5 1079.7, 635.5 1101.7, 641 1107.2 C 644.7 1110.9, 652.4 1111.1, 658.5 1107.7 L 662.4 1105.5 662.6 1092.8 C 662.7 1083.3, 663.3 1077.8, 665 1070.6 L 667.4 1061 665.2 1056.5 C 661.7 1049.4, 654.1 1046, 648.5 1049.2 M 683 1050.2 C 676.3 1054.8, 670.7 1070.7, 669.4 1088.9 C 668.4 1104.3, 670.6 1108.2, 681.3 1109.6 C 686.8 1110.4, 696.3 1107.7, 699.5 1104.6 C 701.4 1102.6, 701.8 1101.1, 702.2 1090.9 C 702.5 1084.7, 703.6 1076.2, 704.5 1072.2 L 706.2 1064.8 703.1 1058.5 C 698.2 1048.6, 690.2 1045.3, 683 1050.2 M 897.3 1049.6 C 888.8 1053.9, 885 1063.5, 885 1080.9 C 885 1098.7, 887.9 1101.9, 902.8 1100.5 C 919.4 1099, 921.4 1096.3, 920.8 1077 C 920.4 1062.9, 917.7 1055.1, 911.9 1050.7 C 908.3 1048.1, 901.3 1047.5, 897.3 1049.6 M 938.4 1051.9 C 935 1054, 931.2 1058.6, 928.7 1063.6 C 927.4 1066.1, 927.2 1069.3, 927.5 1079.6 C 927.9 1091.9, 928.1 1092.6, 930.5 1094.7 C 935.6 1099.2, 951.6 1098.6, 956.6 1093.9 C 964.4 1086.5, 962.3 1062.4, 953 1053.5 C 949.2 1049.8, 942.7 1049.1, 938.4 1051.9 M 526.5 1051.9 C 522.8 1053.5, 521.8 1055.7, 521.9 1062.4 C 522 1075.1, 531.8 1090, 543.3 1095 C 546 1096.1, 551.4 1097, 558.6 1097.4 C 564.7 1097.8, 573.9 1099, 579.1 1100.1 C 591.5 1102.7, 606 1105.2, 607.1 1104.8 C 607.6 1104.6, 603.8 1101.7, 598.7 1098.3 C 593.7 1094.9, 584.2 1087.5, 577.7 1081.8 C 558.1 1064.6, 550.2 1058.4, 544 1055.1 C 537.8 1051.8, 530 1050.4, 526.5 1051.9 M 933.6 1120.7 L 925.6 1124.3 918.3 1122.1 C 900.1 1116.8, 892.1 1121.4, 893.3 1136.7 C 894.2 1149.1, 900 1157.6, 909.2 1160.1 C 914 1161.4, 933.9 1160.7, 942.2 1158.9 C 952.6 1156.6, 958 1148.2, 958 1134.3 C 958 1117.4, 950.2 1113.1, 933.6 1120.7 M 863.5 1122.9 C 849.4 1124.1, 847.6 1126.7, 848.2 1145.7 C 848.5 1158.1, 848.6 1158.7, 852 1164.8 C 855.9 1172.2, 860.3 1176, 865.7 1176.7 C 874.4 1177.9, 880.5 1172.2, 885 1158.9 L 887.7 1150.8 890.8 1155.7 C 894.7 1161.7, 902 1166.7, 908 1167.5 L 912.5 1168 907.8 1166.7 C 895.3 1163.1, 886.4 1150.1, 885.6 1134.4 C 885.3 1126.1, 884.9 1125.3, 880.4 1123.4 C 876.9 1121.9, 876.4 1121.9, 863.5 1122.9 M 778 1124 C 771 1125.2, 765.2 1127.9, 762.4 1131.3 C 759.8 1134.4, 759.8 1134.5, 760.3 1148 C 760.8 1163.1, 762.8 1171, 768 1179.3 C 777.3 1194, 788.9 1189.7, 795.9 1168.9 C 798.6 1160.8, 798.7 1159.9, 798.2 1146 C 797.7 1129.5, 796.9 1127.4, 790 1124.6 C 785.6 1122.9, 784.8 1122.8, 778 1124 M 821 1124 C 806.3 1125.3, 804.7 1127.7, 805.2 1147.1 C 805.6 1162.8, 807.7 1169.6, 814.2 1176.6 C 821.7 1184.8, 828.8 1184.3, 835.7 1175.2 C 841 1168.1, 842.3 1162.1, 841.8 1145 C 841.5 1132, 841.2 1129.9, 839.5 1127.9 C 837.4 1125.6, 831.9 1122.9, 829.8 1123.2 C 829.1 1123.2, 825.1 1123.6, 821 1124 M 642.7 1127.5 C 639.8 1130.3, 639.7 1137.8, 642.4 1151.2 C 647 1173.9, 652.4 1181.6, 658.8 1174.7 L 660.9 1172.5 658.5 1164 C 655.8 1154.6, 654 1142.5, 654 1133.8 C 654 1129.2, 653.6 1127.9, 652.1 1127 C 649.3 1125.5, 644.4 1125.8, 642.7 1127.5 M 662.8 1128.1 C 659.3 1130.1, 660.7 1148.7, 665.4 1165.2 C 669.6 1179.5, 677.6 1183.3, 682.6 1173.4 C 684.7 1169.3, 684.7 1169.2, 682.8 1160.4 C 681.8 1155.5, 680.7 1146.6, 680.3 1140.7 C 679.8 1131.3, 679.4 1129.7, 677.6 1128.5 C 675.2 1126.8, 665.4 1126.5, 662.8 1128.1 M 689.6 1129.1 C 686.4 1131.6, 686 1140, 688.6 1155.1 C 692.1 1176, 700.2 1184, 709.5 1175.9 C 714.3 1171.6, 715.5 1167.2, 714.1 1158.2 C 713.5 1154.3, 713 1147.2, 713 1142.5 C 713 1137.7, 712.5 1133, 711.9 1131.8 C 709.3 1126.9, 694.7 1125.1, 689.6 1129.1 M 725 1128.8 C 719.4 1131.6, 718.7 1134.1, 719.9 1148.4 C 721.8 1171, 728.8 1185, 738.1 1185 C 746.2 1185, 755.9 1169, 753.9 1158.9 C 753.5 1156.5, 753.1 1149.7, 753 1143.9 C 753 1132.3, 752.2 1130.5, 745.7 1128.1 C 741.1 1126.3, 729 1126.7, 725 1128.8 M 943 1195.2 C 937.1 1197.4, 918.5 1198.3, 912.7 1196.7 C 910 1196, 909.9 1196.1, 910.2 1199.2 C 910.6 1203.4, 914.6 1204.4, 928 1203.7 C 941.4 1203, 950 1199.9, 950 1195.9 C 950 1192.5, 950.1 1192.5, 943 1195.2 M 949.5 1199.9 C 947.1 1203.9, 919.9 1206.8, 912.4 1204 C 909.3 1202.8, 904.5 1204.2, 903.6 1206.6 C 903 1208.2, 907.5 1212, 910 1212 C 911.4 1212, 911.8 1212.8, 911.6 1215.2 C 911.5 1218, 911.9 1218.4, 915 1219.3 C 923.3 1221.5, 948.3 1218, 949.7 1214.4 C 951.1 1210.8, 949.5 1210.2, 942.3 1212.1 C 937.5 1213.4, 932.1 1213.9, 924 1213.8 L 912.5 1213.7 924.5 1213 C 941.3 1212, 953.6 1208.5, 955.9 1204.1 C 957.4 1201.4, 951.1 1197.3, 949.5 1199.9 M 946 1218.3 C 942 1220.3, 939.8 1220.5, 924.4 1220.6 C 907.2 1220.6, 905 1221, 905 1223.5 C 905 1227.2, 909.9 1228.5, 924 1228.4 C 938.7 1228.4, 949.4 1226.1, 953.8 1222 C 955.8 1220.1, 955.9 1217, 954 1217 C 953.5 1217, 952.6 1216.8, 951.8 1216.6 C 951.1 1216.4, 948.5 1217.1, 946 1218.3 M 943.5 1227.7 C 941.1 1228.6, 934 1229.5, 925.9 1229.9 C 912.4 1230.5, 912.3 1230.5, 913.1 1232.7 C 914.6 1236.7, 931.7 1237.1, 943.6 1233.3 C 948.5 1231.8, 949 1231.4, 949 1228.8 C 949 1225.7, 949 1225.7, 943.5 1227.7 M 944 1234.8 C 938.1 1236.8, 936.1 1237, 923.4 1236.7 C 907.3 1236.2, 903.8 1237.2, 907.6 1241 C 914.4 1247.8, 951.4 1244.3, 954.4 1236.5 C 955.9 1232.4, 952.3 1231.8, 944 1234.8 M 940 1244.5 C 937 1245.2, 929.9 1245.9, 924.3 1245.9 C 914.8 1246, 914 1246.2, 914 1247.9 C 914 1250.6, 916.6 1251.2, 927 1251.2 C 939 1251.1, 948 1248.7, 948 1245.4 C 948 1242.8, 947.8 1242.7, 940 1244.5 M 944.5 1250.2 C 938.5 1252.6, 923.4 1253.8, 917.7 1252.2 C 913.1 1250.9, 909 1252.3, 909 1255.2 C 909 1262.1, 943.7 1261.5, 951.3 1254.4 C 954.5 1251.4, 954.7 1250.4, 952.1 1249 C 949.7 1247.8, 950.6 1247.7, 944.5 1250.2 M 944.5 1259.3 C 943.4 1259.9, 936.7 1260.6, 929.3 1260.8 C 916.3 1261.2, 916 1261.3, 916 1263.5 C 916 1266.1, 918.9 1267, 927.9 1267 C 933.6 1267, 944.8 1264.6, 946.3 1263.1 C 946.8 1262.6, 947 1261.3, 946.8 1260.2 C 946.5 1258.4, 946.2 1258.3, 944.5 1259.3 M 943.7 1265.7 C 939.2 1268.1, 930 1269.1, 922 1268.1 C 912 1266.8, 908.6 1268.5, 913.1 1272.6 C 917.7 1276.8, 943.9 1275.1, 949.2 1270.3 C 951.4 1268.3, 951.5 1265.4, 949.4 1264.6 C 947.4 1263.8, 947.1 1263.9, 943.7 1265.7 M 940.5 1275.1 C 938.9 1275.6, 933.3 1276.1, 928.2 1276.3 C 919 1276.5, 918.9 1276.5, 919.2 1279 C 919.5 1281.5, 919.6 1281.5, 929 1281.5 C 939.6 1281.5, 944.3 1280, 944.8 1276.2 C 945.2 1273.8, 944.9 1273.7, 940.5 1275.1 M 939.5 1282.1 C 935.4 1283.7, 932.9 1283.9, 925.3 1283.5 C 920 1283.1, 915.9 1283.3, 915.6 1283.8 C 914.9 1285, 922.2 1291.7, 925.6 1293 C 932.3 1295.6, 938.4 1293.6, 944.4 1287 C 950.2 1280.6, 948.3 1278.8, 939.5 1282.1 M 272.7 1993.8 C 264.6 2001.9, 258 2008.8, 258 2009.1 C 258 2009.4, 264.8 2016.6, 273 2025.1 L 288.1 2040.5 301.5 2026.8 L 314.9 2013 1001.7 2013 L 1688.5 2013 1702 2026.5 L 1715.5 2040 1730.8 2024.7 L 1746 2009.5 1730.6 1994.1 L 1715.2 1978.7 1701.9 1992.3 L 1688.6 2006 1002 2006 L 315.5 2006 302 1992.5 C 294.6 1985.1, 288.3 1979, 288 1979 C 287.7 1979, 280.8 1985.6, 272.7 1993.8 M 277.7 1998.8 C 272.4 2004.1, 268 2009, 268 2009.5 C 268 2010.1, 272.5 2015, 278 2020.5 L 288 2030.4 298.4 2019.8 L 308.8 2009.3 298.6 1999.1 C 293 1993.6, 288.2 1989, 288 1989 C 287.7 1989, 283.1 1993.4, 277.7 1998.8 M 1704.5 1999.1 L 1694.7 2009.2 1705.1 2019.6 L 1715.5 2030 1725.7 2019.8 L 1736 2009.6 1726.2 1999.4 C 1720.9 1993.8, 1716 1989.2, 1715.4 1989.1 C 1714.8 1989.1, 1709.9 1993.5, 1704.5 1999.1 M 434 2121 C 387.3 2127.1, 346.3 2161.9, 332.6 2207.1 C 327.3 2224.6, 326.6 2229.3, 326.7 2250 C 326.7 2269.2, 326.7 2269.7, 330.3 2283.5 C 347.2 2348.2, 404.7 2385.6, 474 2376.9 C 484.4 2375.6, 501.9 2370.1, 512.5 2364.8 C 546.9 2347.5, 571.3 2312.7, 578.6 2270.5 C 581.2 2255.6, 580.1 2229.8, 576.1 2214.6 C 563.5 2166.3, 527.8 2132.2, 480 2122.5 C 471.1 2120.7, 443.2 2119.8, 434 2121 M 1580.4 2124.8 C 1575.9 2135.1, 1554 2189.6, 1542.7 2218.5 C 1539.7 2226.2, 1535 2238.1, 1532.3 2245 C 1527.3 2257.4, 1520.5 2274.9, 1509.5 2303 C 1486 2363.2, 1484.2 2366.1, 1465.7 2370.6 C 1462 2371.5, 1459 2372.7, 1459 2373.1 C 1459 2373.6, 1473.8 2374, 1492 2374 C 1512.9 2374, 1525 2373.6, 1525 2373 C 1525 2372, 1523.6 2371.6, 1516.5 2370.5 C 1509.9 2369.4, 1504.2 2366.4, 1502 2362.8 C 1498.3 2356.7, 1499.3 2350.6, 1508.2 2327.5 C 1510.9 2320.3, 1514.2 2311.8, 1515.4 2308.5 C 1516.7 2305.2, 1519.4 2298.1, 1521.5 2292.8 L 1525.3 2283 1573.4 2283 L 1621.5 2283 1625.2 2292.3 C 1647.9 2349.3, 1649.5 2354.1, 1648.4 2359.5 C 1647.1 2365.9, 1640.9 2369.6, 1628.2 2371.5 C 1617 2373.3, 1628.1 2374, 1665.1 2374 C 1707.2 2374, 1711.4 2373.5, 1697.8 2370.1 C 1694.2 2369.2, 1689.6 2367.2, 1687.7 2365.7 C 1680.4 2360.1, 1680.3 2360, 1651.6 2287 C 1646.2 2273.5, 1641 2260.5, 1640 2258 C 1638.9 2255.5, 1630.2 2233.9, 1620.6 2210 C 1611 2186.1, 1600.6 2160.4, 1597.5 2153 C 1594.5 2145.6, 1590.5 2135.9, 1588.8 2131.5 C 1584.2 2119.6, 1583 2118.7, 1580.4 2124.8 M 757.6 2127.8 C 756.8 2132.5, 752 2175, 752 2176.8 C 752 2179.9, 754.4 2177, 756.5 2171.4 C 763.6 2152.5, 771.4 2142.9, 785.5 2136 C 797.1 2130.3, 800.7 2130, 854.4 2130 C 896.7 2130, 902.1 2130.2, 901.6 2131.5 C 901.3 2132.4, 897.6 2138.3, 893.4 2144.8 C 889.2 2151.2, 884.3 2158.8, 882.5 2161.5 C 880.7 2164.3, 874.4 2173.9, 868.5 2183 C 862.6 2192.1, 855.4 2203.1, 852.5 2207.5 C 849.6 2211.9, 833.2 2237.1, 816 2263.5 C 798.8 2289.9, 781.8 2316, 778.2 2321.5 C 774.6 2327, 765.6 2340.7, 758.1 2352 C 750.6 2363.3, 744.4 2372.8, 744.2 2373.3 C 744 2373.7, 787.5 2374, 840.8 2374 L 937.7 2374 938.4 2370.3 C 938.7 2368.2, 940.4 2357.5, 942 2346.5 C 943.6 2335.5, 945.3 2324.8, 945.6 2322.8 C 946.5 2317.5, 943.7 2317.6, 942.2 2322.8 C 937.8 2337.4, 928.7 2350.4, 918.1 2357.4 C 902.6 2367.5, 898.6 2368, 832.4 2368 C 803 2368, 779 2367.8, 779 2367.5 C 779 2367.2, 784.9 2358, 792 2347 C 799.1 2336, 810.8 2318.1, 817.9 2307.1 C 831.9 2285.6, 840.3 2272.8, 857.5 2246.5 C 863.6 2237.2, 872.4 2223.7, 877 2216.6 C 881.7 2209.4, 897.2 2185.9, 911.6 2164.3 C 926 2142.7, 937.5 2124.8, 937.2 2124.5 C 936.9 2124.2, 896.5 2124, 847.4 2124 L 758.2 2124 757.6 2127.8 M 1118 2125.3 C 1118 2126.1, 1120.6 2127, 1124.8 2127.8 C 1134 2129.6, 1140.9 2133.6, 1144 2139.1 L 1146.5 2143.5 1146.8 2247.4 C 1147.1 2363.3, 1147.3 2358.9, 1140.5 2364.9 C 1137.1 2367.8, 1128.8 2371, 1124.4 2371 C 1121.5 2371, 1119 2372, 1119 2373.1 C 1119 2373.6, 1157.6 2374, 1210.8 2374 L 1302.7 2374 1306 2356.8 C 1307.8 2347.3, 1310.1 2335.5, 1311.1 2330.5 C 1313.4 2319.8, 1313.4 2319, 1311.6 2319 C 1310.8 2319, 1309.6 2320.7, 1309 2322.8 C 1304.6 2336.2, 1294.9 2350.1, 1284.7 2357.4 C 1271.6 2366.7, 1262.4 2368.2, 1219.9 2367.8 C 1188 2367.5, 1187.4 2367.5, 1182.6 2365.1 C 1174.2 2361, 1174.5 2363.4, 1174.2 2301.2 L 1173.9 2246.9 1207.7 2247.2 L 1241.5 2247.5 1247.3 2250.3 C 1255.8 2254.5, 1260.7 2262.3, 1262.5 2274.3 C 1263 2277.3, 1263.7 2279, 1264.6 2279 C 1265.8 2279, 1266 2273.6, 1265.8 2245 C 1265.5 2210.3, 1264.8 2204.6, 1262.2 2217.1 C 1260.2 2227.3, 1255.2 2234.2, 1247.5 2237.7 C 1244 2239.3, 1239.4 2239.5, 1208.7 2239.8 L 1173.9 2240.2 1174.2 2190.8 C 1174.5 2135.3, 1174.3 2137.4, 1182 2133 L 1186.5 2130.5 1218 2130.5 C 1245.7 2130.5, 1250.2 2130.7, 1255.5 2132.3 C 1273.6 2137.9, 1281.7 2146.7, 1291.8 2171.3 C 1294 2176.5, 1295.3 2174.5, 1294.5 2167.3 C 1294.1 2163.5, 1293 2152.4, 1292.1 2142.5 L 1290.5 2124.5 1204.3 2124.2 C 1134.8 2124, 1118 2124.2, 1118 2125.3 M 432.5 2127.4 C 394.3 2133.6, 370.1 2160.6, 359.9 2208.5 C 356.1 2226.1, 356.4 2265.5, 360.4 2282.5 C 371.6 2330.1, 398.6 2360.8, 437.4 2370 C 439.6 2370.6, 446.7 2371.3, 453.1 2371.7 C 513.6 2375, 550.9 2331.5, 551 2257.5 C 551 2192.7, 520 2140.8, 474.1 2128.9 C 464.3 2126.3, 443.6 2125.6, 432.5 2127.4 M 1571 2166.5 C 1568.8 2171.6, 1556.2 2203.4, 1542.3 2239 C 1535.5 2256.4, 1529.7 2271.2, 1528.3 2274.8 C 1527.9 2275.7, 1537.2 2276, 1572.9 2276 C 1597.7 2276, 1618 2275.8, 1618 2275.6 C 1618 2274.8, 1611.9 2259.1, 1593.5 2213 C 1582.9 2186.3, 1574 2163.8, 1573.7 2163 C 1573.4 2162.1, 1572.4 2163.4, 1571 2166.5 M 854.1 2471.3 C 852.9 2474.1, 849 2483.9, 845.4 2493 C 834.5 2520.8, 834 2521.7, 830.3 2523.1 C 825.5 2524.9, 828.1 2526, 837.1 2526 C 843.8 2526, 846.1 2525.7, 845.8 2524.8 C 845.5 2524.1, 844.3 2523.3, 842.9 2523 C 839.6 2522.2, 839.4 2518.8, 842 2511.7 L 844.1 2506 854.6 2506 L 865.1 2506 868.1 2512.7 C 871.4 2520, 871.3 2521.6, 867.5 2523 C 862.2 2525, 865 2526, 876 2526 C 885.1 2526, 887 2525.7, 887 2524.5 C 887 2523.7, 886.2 2523, 885.2 2523 C 884.1 2523, 882.6 2522.2, 881.8 2521.3 C 880.4 2519.6, 865.5 2485.5, 862.4 2476.7 C 860.5 2471.2, 857.9 2466, 857.1 2466 C 856.7 2466, 855.4 2468.4, 854.1 2471.3 M 452.5 2467.9 C 451.6 2468.7, 453.2 2470, 455 2470 C 459.4 2470, 460 2473, 460 2497 C 460 2509.4, 459.6 2520.1, 459.1 2520.8 C 458.7 2521.5, 457.1 2522.4, 455.7 2522.8 C 449.7 2524.4, 453.4 2525.5, 465.7 2525.8 C 490.8 2526.4, 502 2521.8, 508.6 2508.4 C 515.3 2494.6, 510.3 2479.2, 496.7 2471.9 C 490.9 2468.8, 489.8 2468.5, 479.5 2468.3 C 473.4 2468.1, 465 2467.9, 460.7 2467.7 C 456.4 2467.6, 452.7 2467.7, 452.5 2467.9 M 550.4 2467.9 C 549.3 2469, 550.2 2469.9, 552.7 2470.2 C 557.5 2470.7, 558 2473.4, 558 2497 C 558 2520, 557.4 2523, 552.9 2523 C 551.9 2523, 551 2523.7, 551 2524.5 C 551 2526.4, 594.4 2526.5, 595.8 2524.6 C 597 2523.1, 599.1 2511.8, 598.4 2511.1 C 598 2510.8, 597.5 2511.2, 597.2 2511.9 C 596.9 2512.7, 595 2515.2, 592.9 2517.4 L 589.1 2521.5 579 2521.8 C 565.7 2522.3, 566 2522.6, 566 2508.4 L 566 2497 574.3 2497 C 583.6 2497, 584.8 2497.5, 585.8 2501.5 C 587.5 2507.9, 589 2505.4, 589 2496.1 C 589 2486.9, 587.9 2484.5, 586 2489.5 C 584.7 2492.9, 581 2494.1, 573.1 2493.8 L 566.5 2493.5 566.2 2482.3 L 565.9 2471 574.8 2471 C 586.4 2471, 589.4 2472.1, 591.7 2477.1 C 594.3 2482.6, 595.1 2481.9, 594.8 2474.8 L 594.5 2468.5 572.7 2468 C 560.7 2467.7, 550.6 2467.7, 550.4 2467.9 M 639.4 2467.9 C 638.4 2468.9, 639.1 2470, 640.8 2470 C 641.8 2470, 643.6 2471, 644.8 2472.3 C 646.9 2474.5, 647 2475.4, 647 2496.6 C 647 2520.2, 646.6 2522.5, 641.7 2523.2 C 636.2 2524, 640.9 2525.5, 649.6 2525.8 C 657.1 2526, 659.1 2525.8, 658.8 2524.8 C 658.5 2524.1, 657.4 2523.4, 656.3 2523.2 C 651.3 2522.5, 650.9 2520.8, 651.2 2499 L 651.5 2478.8 661.5 2490.5 C 667 2497, 672 2502.8, 672.5 2503.4 C 673.1 2504, 677.8 2509.4, 682.9 2515.5 C 688.1 2521.6, 692.9 2526.6, 693.6 2526.8 C 694.8 2527.1, 695 2522.5, 695 2500.8 C 695 2472.7, 695.4 2470, 700 2470 C 701 2470, 702.2 2469.6, 702.5 2469 C 702.9 2468.4, 699.5 2468, 693.1 2468 C 683.3 2468, 679.9 2469.1, 685.9 2470.3 C 690.7 2471.3, 691.1 2473.3, 690.8 2493.2 L 690.5 2511.4 676 2494.5 C 668 2485.1, 659.7 2475.3, 657.5 2472.6 L 653.4 2467.8 646.6 2467.6 C 642.9 2467.6, 639.6 2467.7, 639.4 2467.9 M 744.5 2468 C 743.7 2469.4, 743 2482, 743.7 2482 C 744.1 2482, 745.3 2480.2, 746.2 2478 C 748.2 2473.2, 752.5 2471, 759.8 2471 L 764.7 2471 765.5 2493.9 C 766.3 2518.9, 765.8 2521.9, 761.1 2523 C 759.7 2523.3, 758.5 2524.1, 758.2 2524.8 C 757.9 2525.7, 760.9 2526, 770 2526 C 779.3 2526, 782.1 2525.7, 781.8 2524.8 C 781.5 2524.1, 780.4 2523.4, 779.2 2523.2 C 774.4 2522.5, 774 2520.3, 774 2494.8 L 774 2471 779.5 2471 C 787.6 2471, 791.3 2472.9, 793.4 2477.9 C 795.5 2483.3, 796.9 2482.4, 795.9 2476.3 C 795.5 2473.7, 795.1 2470.7, 795.1 2469.8 C 795 2468.2, 792.8 2468, 769.9 2467.8 C 756.1 2467.6, 744.7 2467.7, 744.5 2468 M 928.7 2467.6 C 927.3 2469, 928 2470, 930.4 2470 C 935.5 2470, 936 2472.4, 936 2497 C 936 2509.4, 935.6 2520.1, 935.1 2520.8 C 934.7 2521.5, 933.1 2522.4, 931.7 2522.8 C 924.5 2524.7, 930.1 2525.5, 950.7 2525.5 L 972.3 2525.5 974 2518.3 C 976.1 2509.5, 975.6 2508.7, 971.8 2514.6 C 970.1 2517.4, 967.7 2519.7, 965.5 2520.6 C 961.2 2522.3, 946.9 2522.5, 945.2 2520.8 C 944.3 2519.9, 944 2513.1, 944 2496.5 C 944 2471.3, 944.3 2470, 949.8 2470 C 951 2470, 952 2469.6, 952 2469 C 952 2468.4, 948 2468, 942.1 2468 C 936.6 2468, 931.5 2467.8, 930.8 2467.5 C 930 2467.2, 929.1 2467.3, 928.7 2467.6 M 1099.8 2468.5 C 1084.8 2474.2, 1076.7 2488.7, 1080.3 2503.4 C 1083.6 2517, 1092.6 2524.7, 1107.1 2526.5 C 1116.8 2527.7, 1130.6 2523.7, 1131.5 2519.6 C 1133.3 2510.2, 1132.3 2506, 1129.7 2512.2 C 1127.9 2516.6, 1122 2521.6, 1117.3 2522.9 C 1103 2526.9, 1090.8 2516.5, 1089.3 2499.1 C 1087.8 2481.7, 1096.4 2470, 1110.5 2470 C 1119.7 2470, 1125.2 2473.4, 1128.5 2481.3 C 1130.6 2486.4, 1131 2486, 1131 2478.2 L 1131 2471.4 1127.3 2469.5 C 1122.3 2467, 1105.2 2466.4, 1099.8 2468.5 M 1175 2468.8 C 1175 2469.4, 1175.8 2470, 1176.8 2470 C 1181.7 2470, 1182.1 2472, 1181.8 2497.6 L 1181.5 2521.5 1178.3 2522.5 C 1176.5 2523, 1175 2524, 1175 2524.7 C 1175 2525.7, 1179.6 2526, 1196.5 2526 C 1221.1 2526, 1218.8 2526.9, 1221 2516.1 C 1222.3 2509.2, 1221.9 2508.9, 1218.3 2514.2 C 1214.1 2520.5, 1210.3 2522.1, 1200 2521.8 L 1191.5 2521.5 1191.5 2496.5 L 1191.5 2471.5 1195 2470.4 C 1196.9 2469.7, 1198.4 2468.9, 1198.3 2468.6 C 1197.8 2467.2, 1175 2467.4, 1175 2468.8 M 1262.3 2468.3 C 1261.7 2469.3, 1261.7 2469.3, 1265.5 2470.6 L 1268.5 2471.5 1268.8 2495.9 C 1269 2521.3, 1268.9 2522.6, 1264.8 2523.2 C 1263.6 2523.4, 1262.5 2524.1, 1262.2 2524.8 C 1261.9 2525.7, 1264.6 2526, 1273.5 2526 C 1282.4 2526, 1285.1 2525.7, 1284.8 2524.8 C 1284.5 2524.1, 1283.5 2523.3, 1282.4 2523.1 C 1278.1 2522.3, 1278 2521.8, 1278 2496.9 C 1278 2471.5, 1278.3 2470, 1283.1 2470 C 1284.1 2470, 1285 2469.4, 1285 2468.8 C 1285 2467.3, 1263.2 2466.9, 1262.3 2468.3 M 1328.4 2468.2 C 1328.2 2468.5, 1329.7 2469.7, 1331.8 2470.8 L 1335.5 2472.7 1335.8 2495.5 C 1336.1 2519.9, 1335.5 2523, 1331 2523 C 1329.9 2523, 1329 2523.7, 1329 2524.5 C 1329 2525.7, 1330.7 2526, 1338.6 2526 C 1345.8 2526, 1348.1 2525.7, 1347.8 2524.8 C 1347.5 2524.1, 1346.4 2523.4, 1345.3 2523.2 C 1340.3 2522.5, 1339.9 2520.8, 1340.2 2499.1 L 1340.5 2478.8 1361.3 2502.9 C 1372.8 2516.2, 1382.6 2527, 1383.1 2527 C 1383.6 2527, 1384 2516.1, 1384 2501.6 C 1384 2473.7, 1384.3 2471.8, 1389.1 2470.1 C 1390.9 2469.5, 1392.1 2468.7, 1391.7 2468.4 C 1390.6 2467.3, 1372.6 2467.8, 1372.2 2468.9 C 1372 2469.5, 1372.7 2470, 1373.8 2470 C 1374.9 2470, 1376.7 2470.8, 1377.9 2471.8 C 1380 2473.4, 1380.1 2474.1, 1379.8 2492.3 L 1379.5 2511.1 1360.9 2489.3 L 1342.3 2467.5 1335.5 2467.5 C 1331.8 2467.5, 1328.6 2467.8, 1328.4 2468.2 M 1434 2468.8 C 1434 2469.4, 1434.8 2470, 1435.8 2470 C 1440.6 2470, 1441 2472.1, 1441 2497.2 C 1441 2521.8, 1440.9 2522.3, 1436.6 2523.1 C 1435.5 2523.3, 1434.5 2524.1, 1434.2 2524.8 C 1433.9 2525.8, 1436.2 2526.1, 1445.4 2525.9 C 1453 2525.7, 1456.9 2525.3, 1456.7 2524.6 C 1456.5 2524, 1455.4 2523.4, 1454.2 2523.2 C 1450.1 2522.6, 1450 2521.3, 1450.2 2495.9 L 1450.5 2471.5 1453.8 2470.5 C 1459.5 2468.9, 1457.3 2468.1, 1445.5 2467.8 C 1436.8 2467.6, 1434 2467.8, 1434 2468.8 M 1518.2 2470.1 C 1494.4 2481.9, 1495.8 2516.1, 1520.4 2524.7 C 1527.6 2527.2, 1539.7 2526.9, 1547.2 2524.1 C 1552.6 2522, 1552.9 2521.7, 1553.5 2517.7 C 1553.9 2515.4, 1554.4 2512.7, 1554.6 2511.8 C 1554.9 2510.7, 1554.6 2510, 1553.7 2510 C 1552.9 2510, 1551.9 2511.1, 1551.6 2512.4 C 1550.7 2515.9, 1543.7 2521.7, 1538.8 2523 C 1527.5 2526.1, 1515.3 2518.6, 1512.1 2506.5 C 1510.7 2501.4, 1510.7 2489.6, 1512 2484.8 C 1516.1 2470.3, 1536.1 2464.6, 1546.2 2475.1 C 1548.2 2477.2, 1550.1 2480.3, 1550.5 2481.9 C 1551.6 2487, 1553 2485.4, 1553 2479.2 C 1553 2472.3, 1551.9 2470.5, 1546.1 2468.5 C 1538.2 2465.8, 1525.4 2466.5, 1518.2 2470.1 M 468.4 2495.3 C 468.5 2508.6, 468.9 2520.1, 469.3 2520.8 C 470.5 2522.6, 484.2 2522.4, 488.7 2520.5 C 503.6 2514.3, 506.7 2488.1, 494 2476.6 C 489.3 2472.4, 484.8 2471, 475.4 2471 L 468.3 2471 468.4 2495.3 M 851.7 2486.3 C 848.7 2493.4, 846 2500.8, 846 2502.1 C 846 2502.6, 850 2503, 855 2503 C 860 2503, 864 2502.7, 864 2502.4 C 864 2502, 862.2 2497.5, 860 2492.4 C 857.8 2487.2, 856 2482.6, 856 2482.1 C 856 2478.9, 853.9 2480.9, 851.7 2486.3"/>
</svg>
